<svg xmlns="http://www.w3.org/2000/svg" xmlns:xlink="http://www.w3.org/1999/xlink" width="200" zoomAndPan="magnify" viewBox="0 0 150 74.999997" height="100" preserveAspectRatio="xMidYMid meet" version="1.0"><defs><g/><clipPath id="2bd1e2ea8a"><path d="M 8.804688 34.511719 L 43.25 34.511719 L 43.25 58.554688 L 8.804688 58.554688 Z M 8.804688 34.511719 " clip-rule="nonzero"/></clipPath><clipPath id="fa950fe159"><path d="M 26 14 L 51.75 14 L 51.75 34 L 26 34 Z M 26 14 " clip-rule="nonzero"/></clipPath><clipPath id="cf5326e67a"><path d="M 69.097656 17 L 101.347656 17 L 101.347656 49 L 69.097656 49 Z M 69.097656 17 " clip-rule="nonzero"/></clipPath></defs><g clip-path="url(#2bd1e2ea8a)"><path fill="#ff914d" d="M 43.234375 34.511719 L 8.820312 34.511719 L 13.058594 58.566406 L 38.992188 58.566406 L 41.46875 44.523438 L 23.941406 44.523438 L 23.941406 48.691406 L 36.5 48.691406 L 35.496094 54.398438 L 16.558594 54.398438 L 13.789062 38.679688 L 42.5 38.679688 L 43.234375 34.511719 " fill-opacity="1" fill-rule="nonzero"/></g><g clip-path="url(#fa950fe159)"><path fill="#ff914d" d="M 27.140625 27.394531 C 27.140625 27.394531 26.710938 22.378906 29.292969 18.859375 C 31.878906 15.339844 34.710938 13.5625 36.832031 15.285156 C 38.835938 16.914062 38.902344 25.976562 28.519531 29.527344 C 30.339844 29.96875 32.234375 30.183594 34.085938 30.128906 C 34.917969 30.101562 35.75 29.980469 36.558594 29.726562 C 37.371094 29.476562 38.109375 29.039062 38.894531 28.699219 C 41.828125 27.425781 45.160156 27.511719 48.148438 28.464844 C 49.527344 28.902344 50.863281 29.574219 52.054688 30.542969 C 52.054688 30.542969 49.183594 29.832031 49.5 33.636719 C 47.289062 31.890625 45.25 30.132812 41.828125 30.5 C 40.042969 30.691406 38.277344 31.136719 36.503906 31.449219 C 33.582031 31.964844 30.558594 31.582031 27.796875 30.269531 C 27.375 30.070312 26.960938 29.851562 26.550781 29.617188 C 26.550781 29.617188 31.625 27.242188 33.816406 24.566406 C 36.632812 21.136719 36.488281 14.671875 33.128906 17.234375 C 29.769531 19.792969 27.699219 23.046875 27.140625 27.394531 " fill-opacity="1" fill-rule="nonzero"/></g><path fill="#ff914d" d="M 24.914062 27.394531 C 24.914062 27.394531 25.34375 22.378906 22.757812 18.859375 C 20.175781 15.339844 17.34375 13.5625 15.222656 15.285156 C 13.21875 16.914062 13.152344 25.976562 23.535156 29.527344 C 21.714844 29.96875 19.820312 30.183594 17.96875 30.128906 C 17.136719 30.101562 16.304688 29.980469 15.496094 29.726562 C 14.683594 29.476562 13.945312 29.039062 13.160156 28.699219 C 10.226562 27.425781 6.894531 27.511719 3.90625 28.464844 C 2.527344 28.902344 1.191406 29.574219 0 30.542969 C 0 30.542969 2.871094 29.832031 2.554688 33.636719 C 4.761719 31.890625 6.804688 30.132812 10.226562 30.5 C 12.011719 30.691406 13.773438 31.136719 15.550781 31.449219 C 18.472656 31.964844 21.496094 31.582031 24.257812 30.269531 C 24.679688 30.070312 25.09375 29.851562 25.503906 29.617188 C 25.503906 29.617188 20.429688 27.242188 18.238281 24.566406 C 15.421875 21.136719 15.566406 14.671875 18.925781 17.234375 C 22.285156 19.792969 24.351562 23.046875 24.914062 27.394531 " fill-opacity="1" fill-rule="nonzero"/><path stroke-linecap="butt" transform="matrix(0.75, 0, 0, 0.75, 11.363654, 60.971284)" fill="none" stroke-linejoin="miter" d="M -0.000496776 3.50183 L 108.291179 3.50183 " stroke="#004aad" stroke-width="7" stroke-opacity="1" stroke-miterlimit="4"/><path stroke-linecap="butt" transform="matrix(0.75, 0, 0, 0.75, 92.582287, 60.971284)" fill="none" stroke-linejoin="miter" d="M -0.000341586 3.50183 L 64.520497 3.50183 " stroke="#ff914d" stroke-width="7" stroke-opacity="1" stroke-miterlimit="4"/><g clip-path="url(#cf5326e67a)"><path fill="#ff914d" d="M 77.925781 42.261719 C 77.828125 41.554688 77.203125 40.902344 76.566406 40.625 C 76.3125 40.535156 76.445312 40.640625 76.445312 40.667969 C 76.378906 40.703125 76.375 40.679688 76.398438 40.722656 C 76.363281 40.710938 76.285156 40.675781 76.253906 40.6875 C 76.285156 40.824219 76.496094 41.003906 76.550781 41.03125 C 76.707031 41.1875 76.605469 41.164062 76.671875 41.21875 C 76.828125 41.355469 76.847656 41.394531 76.925781 41.566406 C 77.851562 43.613281 75.746094 45.476562 73.882812 44.171875 C 72.535156 42.992188 73.222656 41.167969 74.726562 40.625 C 74.773438 40.585938 75.007812 40.566406 75.070312 40.5625 C 75.464844 40.546875 75.289062 40.5 75.691406 40.589844 C 75.757812 40.605469 75.773438 40.539062 75.984375 40.59375 C 76.085938 40.621094 76.074219 40.566406 76.152344 40.601562 C 76.214844 40.632812 76.144531 40.589844 76.300781 40.601562 C 76.167969 40.011719 75.503906 39.855469 74.992188 39.746094 C 72.453125 39.582031 71.078125 42.941406 72.890625 44.6875 C 74.832031 46.757812 78.410156 45.109375 77.925781 42.261719 Z M 72.796875 46.222656 C 73.277344 48.582031 69.78125 49.101562 69.339844 46.808594 C 69.097656 45.714844 70.277344 44.414062 71.367188 44.914062 C 71.613281 44.996094 71.824219 45.246094 71.777344 45.511719 C 71.753906 45.515625 71.734375 45.515625 71.707031 45.542969 C 71.691406 45.558594 71.679688 45.523438 71.640625 45.554688 C 71.589844 45.597656 71.558594 45.53125 71.46875 45.605469 C 71.425781 45.636719 71.355469 45.570312 71.273438 45.605469 C 71.199219 45.632812 71.035156 45.632812 71.015625 45.671875 C 70.464844 46.050781 70.195312 46.566406 70.660156 47.082031 C 70.949219 47.328125 71.449219 47.363281 71.742188 47.125 C 72 46.898438 72.007812 46.640625 72.03125 46.355469 C 72.066406 46.324219 71.96875 46.0625 71.960938 46.003906 C 71.957031 45.9375 71.835938 45.929688 71.863281 45.875 C 71.90625 45.800781 71.710938 45.800781 71.726562 45.597656 C 71.75 45.582031 71.773438 45.589844 71.808594 45.59375 C 71.804688 45.546875 71.832031 45.566406 71.855469 45.535156 C 71.863281 45.519531 71.78125 45.421875 72.011719 45.496094 C 72.371094 45.609375 72.675781 45.859375 72.796875 46.222656 Z M 101.023438 29.789062 C 101.558594 31.425781 100.617188 33.339844 98.980469 33.890625 C 101.054688 36.171875 98.832031 39.957031 95.859375 39.34375 C 96.46875 42.324219 92.757812 44.5 90.4375 42.546875 C 89.449219 45.429688 85.140625 45.417969 84.105469 42.597656 C 81.757812 44.519531 78.128906 42.488281 78.558594 39.480469 C 75.613281 39.984375 73.464844 36.277344 75.335938 33.957031 C 72.460938 32.769531 72.601562 28.644531 75.371094 27.566406 C 73.503906 25.15625 75.613281 21.570312 78.628906 22.097656 C 78.0625 19.050781 82.203125 17 84.246094 19.351562 C 84.632812 18.035156 85.890625 17.183594 87.273438 17.367188 C 86.523438 17.421875 85.910156 17.761719 85.390625 18.292969 C 84.890625 18.824219 84.789062 19.285156 84.707031 19.976562 C 84.671875 20.300781 84.277344 20.382812 84.105469 20.140625 C 83.894531 19.832031 83.613281 19.578125 83.292969 19.378906 C 82.433594 18.847656 81.296875 18.964844 80.496094 19.546875 C 78.367188 21.316406 80.410156 22.835938 79.523438 23.234375 C 79.253906 23.347656 79.0625 23.152344 78.773438 23.101562 C 76.1875 22.429688 74.550781 25.867188 76.769531 27.421875 C 77.183594 27.742188 76.992188 28.351562 76.507812 28.394531 C 74.59375 28.566406 73.78125 30.675781 74.695312 32.039062 C 75.117188 32.675781 75.75 33.046875 76.511719 33.117188 C 77.035156 33.167969 77.15625 33.835938 76.777344 34.09375 C 74.40625 35.726562 76.519531 39.425781 79.125 38.171875 C 79.410156 38.050781 79.738281 38.179688 79.859375 38.464844 C 79.960938 38.695312 79.882812 38.855469 79.804688 39.042969 C 78.917969 41.125 81.4375 43.125 83.195312 41.933594 C 83.734375 41.714844 84.023438 40.664062 84.714844 41.140625 C 85.121094 41.449219 84.742188 41.808594 85.328125 42.664062 C 85.820312 43.394531 86.761719 43.820312 87.644531 43.660156 C 88.6875 43.496094 89.535156 42.570312 89.597656 41.519531 C 89.636719 40.996094 90.308594 40.792969 90.628906 41.222656 C 92.269531 43.585938 95.90625 41.511719 94.703125 38.898438 C 94.496094 38.371094 95.007812 37.992188 95.417969 38.183594 C 95.988281 38.453125 96.53125 38.488281 97.132812 38.328125 C 99.019531 37.828125 99.449219 35.113281 97.800781 34.058594 C 97.375 33.746094 97.707031 33.101562 98.179688 33.144531 C 99.402344 32.980469 100.304688 31.933594 100.28125 30.710938 C 100.050781 27.871094 97.519531 28.808594 97.625 27.796875 C 97.675781 27.40625 98.066406 27.464844 98.53125 26.722656 C 99.660156 24.925781 97.976562 22.625 95.914062 23.042969 C 95.710938 23.066406 95.550781 23.144531 95.363281 23.21875 C 94.960938 23.378906 94.664062 22.988281 94.8125 22.667969 C 96.136719 20.027344 92.378906 17.550781 90.433594 20.132812 C 90.222656 20.394531 89.875 20.246094 89.847656 19.976562 C 89.773438 18.582031 88.578125 17.625 87.273438 17.46875 C 87.578125 17.433594 87.9375 17.492188 88.222656 17.589844 C 87.929688 17.464844 88.132812 17.53125 88.289062 17.535156 C 88.164062 17.449219 87.90625 17.398438 87.878906 17.378906 C 89.03125 17.472656 90.019531 18.554688 90.230469 19.691406 C 92.183594 17.074219 96.46875 19.160156 95.71875 22.296875 C 98.761719 21.550781 100.988281 25.300781 98.917969 27.636719 C 99.917969 27.96875 100.714844 28.78125 101.023438 29.789062 Z M 89.179688 26.910156 C 93.6875 23.984375 89.738281 20.679688 88.050781 24.304688 C 87.765625 25.03125 87.421875 25.699219 87.332031 26.464844 C 87.046875 25.355469 86.472656 23.449219 85.414062 22.828125 C 84.375 22.199219 82.976562 23.136719 83.261719 24.335938 C 83.574219 25.546875 84.730469 26.546875 85.789062 27.101562 C 85.753906 27.113281 85.71875 27.132812 85.6875 27.152344 C 85.386719 27.164062 83.367188 27.179688 83.023438 27.175781 C 82.246094 27.105469 81.457031 27.746094 81.421875 28.53125 C 81.464844 29.34375 81.183594 30.660156 82.449219 30.492188 C 82.078125 31.878906 82.023438 33.417969 82.023438 34.894531 C 82.015625 36.394531 81.523438 38.761719 83.6875 38.871094 C 86.035156 38.835938 88.449219 38.761719 90.800781 38.753906 C 92.808594 38.695312 92.390625 36.609375 92.378906 35.238281 C 92.402344 33.710938 92.253906 32.152344 92.03125 30.652344 C 93.398438 30.816406 93.28125 29.648438 93.289062 28.667969 C 93.226562 26.371094 90.328125 27.1875 88.894531 27.09375 C 88.992188 27.035156 89.085938 26.976562 89.179688 26.910156 Z M 85.777344 25.878906 C 86.253906 26.246094 86.675781 26.628906 86.988281 27.082031 C 86.992188 27.082031 86.992188 27.082031 86.992188 27.082031 C 86.515625 26.425781 86.210938 25.578125 85.84375 24.871094 C 85.566406 24.351562 85.003906 23.269531 84.351562 23.824219 C 84.144531 24.558594 85.328125 25.386719 85.777344 25.878906 Z M 82.203125 29.675781 L 82.207031 29.675781 C 82.207031 29.675781 82.203125 29.675781 82.203125 29.671875 L 82.199219 29.675781 Z M 82.449219 29.675781 C 83.097656 29.707031 83.746094 29.738281 84.375 29.785156 C 84.582031 29.816406 84.929688 29.734375 84.992188 29.792969 C 85.046875 29.839844 85.367188 29.816406 85.429688 29.816406 L 85.429688 28.175781 C 85.039062 28.246094 82.675781 27.902344 82.4375 28.308594 C 82.183594 28.632812 82.335938 29.289062 82.285156 29.675781 Z M 91.683594 30.636719 C 90.726562 30.601562 89.800781 30.496094 88.878906 30.230469 C 88.824219 30.210938 88.878906 30.195312 88.71875 30.121094 C 88.6875 30.109375 88.667969 30.066406 88.585938 30.039062 C 88.808594 31.292969 88.964844 32.570312 88.9375 33.855469 L 88.960938 34.714844 C 88.964844 35.054688 88.554688 35.273438 88.265625 35.003906 L 87.277344 34.058594 C 87.160156 34.167969 86.414062 34.9375 86.320312 35.039062 C 86.039062 35.328125 85.539062 35.140625 85.535156 34.714844 L 85.507812 33.722656 C 85.5 32.550781 85.457031 31.355469 85.433594 30.179688 C 84.640625 30.277344 83.546875 30.476562 82.761719 30.484375 C 82.9375 31.183594 82.902344 32.15625 82.960938 32.929688 C 83.058594 33.867188 83.09375 34.773438 83.089844 35.714844 C 83.179688 36.335938 82.792969 37.488281 83.523438 37.742188 C 85.882812 37.820312 88.546875 37.6875 90.914062 37.78125 C 91.722656 37.753906 91.46875 36.570312 91.511719 36.039062 L 91.523438 35.339844 C 91.507812 33.816406 91.65625 32.117188 91.683594 30.636719 Z M 92.296875 29.632812 C 92.292969 29.632812 92.292969 29.636719 92.289062 29.636719 C 92.382812 29.636719 92.34375 29.617188 92.296875 29.632812 Z M 89.230469 28.167969 L 88.921875 28.167969 C 88.875 28.542969 88.796875 29.039062 88.640625 29.394531 C 88.558594 29.472656 88.496094 29.5625 88.453125 29.660156 C 88.394531 29.46875 88.386719 29.570312 88.382812 29.476562 C 88.378906 29.351562 88.328125 29.40625 88.316406 29.253906 C 88.292969 28.878906 88.203125 29.050781 88.222656 28.5625 C 88.226562 28.429688 88.203125 28.296875 88.191406 28.164062 C 87.636719 28.152344 87.078125 28.1875 86.527344 28.183594 C 86.539062 29.761719 86.539062 31.839844 86.558594 33.402344 C 87.269531 32.621094 87.472656 32.847656 88.089844 33.550781 C 88.09375 33.363281 88.097656 32.71875 88.101562 32.546875 C 88.121094 32.242188 88.171875 32.15625 88.15625 31.882812 L 88.210938 31.089844 C 88.242188 30.90625 88.160156 30.601562 88.214844 30.542969 C 88.285156 30.472656 88.179688 29.898438 88.351562 29.660156 C 88.378906 29.695312 88.390625 29.8125 88.398438 29.859375 C 88.433594 29.800781 88.398438 29.8125 88.472656 29.867188 C 88.539062 29.648438 88.558594 29.9375 88.582031 30.019531 C 88.75 29.980469 88.65625 29.960938 88.761719 29.960938 C 88.894531 29.957031 88.847656 29.902344 89.011719 29.894531 C 89.429688 29.871094 89.253906 29.777344 89.796875 29.796875 C 90.546875 29.765625 91.4375 29.695312 92.195312 29.636719 L 92.183594 28.542969 C 92.15625 28.402344 92.015625 28.25 91.871094 28.1875 C 91.539062 28.09375 89.609375 28.191406 89.230469 28.167969 Z M 89.074219 25.621094 C 89.417969 25.410156 90.910156 23.738281 89.835938 23.78125 C 89.101562 23.886719 88.835938 24.847656 88.519531 25.4375 L 88.199219 26.167969 C 88.179688 26.269531 88.132812 26.253906 88.113281 26.292969 L 87.945312 26.683594 C 88.308594 26.351562 88.703125 25.921875 89.074219 25.621094 Z M 89.074219 25.621094 " fill-opacity="1" fill-rule="evenodd"/></g><g fill="#ef75be" fill-opacity="0.4"><g transform="translate(42.110798, 57.129022)"><g><path d="M 2.03125 -9.25 C 1.664062 -9.25 1.378906 -9.351562 1.171875 -9.5625 C 0.972656 -9.769531 0.875 -10.023438 0.875 -10.328125 C 0.875 -10.617188 0.972656 -10.867188 1.171875 -11.078125 C 1.378906 -11.296875 1.664062 -11.40625 2.03125 -11.40625 C 2.414062 -11.40625 2.707031 -11.296875 2.90625 -11.078125 C 3.113281 -10.867188 3.21875 -10.617188 3.21875 -10.328125 C 3.21875 -10.023438 3.113281 -9.769531 2.90625 -9.5625 C 2.707031 -9.351562 2.414062 -9.25 2.03125 -9.25 Z M 2.984375 0 L 1.109375 0 L 1.109375 -8 L 2.984375 -8 Z M 2.984375 0 "/></g></g></g><g fill="#ef75be" fill-opacity="0.4"><g transform="translate(46.194563, 57.129022)"><g><path d="M 3.625 0 L 1.734375 0 L 1.734375 -6.390625 L 0.140625 -6.390625 L 0.140625 -8 L 1.734375 -8 L 1.734375 -8.453125 C 1.734375 -8.765625 1.773438 -9.070312 1.859375 -9.375 C 1.953125 -9.6875 2.097656 -9.96875 2.296875 -10.21875 C 2.492188 -10.46875 2.75 -10.671875 3.0625 -10.828125 C 3.382812 -10.984375 3.769531 -11.0625 4.21875 -11.0625 L 5.75 -11.0625 L 5.75 -9.5 L 4.6875 -9.5 C 4.457031 -9.5 4.265625 -9.441406 4.109375 -9.328125 C 3.953125 -9.222656 3.832031 -9.078125 3.75 -8.890625 C 3.664062 -8.710938 3.625 -8.519531 3.625 -8.3125 L 3.625 -8 L 5.71875 -8 L 5.71875 -6.390625 L 3.625 -6.390625 Z M 3.625 0 "/></g></g></g><g fill="#ef75be" fill-opacity="0.4"><g transform="translate(52.028509, 57.129022)"><g><path d="M 6.015625 0 L 4.390625 0 C 4.148438 0 3.90625 -0.0195312 3.65625 -0.0625 C 3.40625 -0.101562 3.164062 -0.179688 2.9375 -0.296875 C 2.707031 -0.421875 2.503906 -0.597656 2.328125 -0.828125 C 2.148438 -1.054688 2.007812 -1.347656 1.90625 -1.703125 C 1.800781 -2.066406 1.75 -2.515625 1.75 -3.046875 L 1.75 -6.375 L 0.078125 -6.375 L 0.078125 -8 L 1.75 -8 L 1.75 -10.34375 L 3.625 -10.359375 L 3.625 -8 L 6.015625 -8 L 6.015625 -6.375 L 3.625 -6.375 L 3.625 -2.953125 C 3.625 -2.578125 3.675781 -2.289062 3.78125 -2.09375 C 3.894531 -1.894531 4.039062 -1.753906 4.21875 -1.671875 C 4.394531 -1.597656 4.582031 -1.5625 4.78125 -1.5625 L 6.015625 -1.5625 Z M 6.015625 0 "/></g></g></g><g fill="#ef75be" fill-opacity="0.4"><g transform="translate(58.469185, 57.129022)"><g><path d="M 4.765625 3.03125 C 4.085938 3.03125 3.503906 2.941406 3.015625 2.765625 C 2.523438 2.597656 2.125 2.367188 1.8125 2.078125 C 1.5 1.796875 1.265625 1.472656 1.109375 1.109375 C 0.960938 0.742188 0.878906 0.375 0.859375 0 L 2.640625 0 C 2.691406 0.269531 2.789062 0.515625 2.9375 0.734375 C 3.09375 0.953125 3.316406 1.125 3.609375 1.25 C 3.898438 1.382812 4.285156 1.453125 4.765625 1.453125 C 5.203125 1.453125 5.570312 1.390625 5.875 1.265625 C 6.175781 1.140625 6.421875 0.96875 6.609375 0.75 C 6.804688 0.53125 6.945312 0.28125 7.03125 0 C 7.125 -0.28125 7.171875 -0.578125 7.171875 -0.890625 L 7.171875 -1.71875 C 6.898438 -1.1875 6.519531 -0.796875 6.03125 -0.546875 C 5.539062 -0.304688 5 -0.1875 4.40625 -0.1875 C 3.84375 -0.1875 3.320312 -0.289062 2.84375 -0.5 C 2.363281 -0.707031 1.953125 -0.992188 1.609375 -1.359375 C 1.273438 -1.722656 1.007812 -2.144531 0.8125 -2.625 C 0.625 -3.101562 0.53125 -3.613281 0.53125 -4.15625 C 0.53125 -4.707031 0.625 -5.222656 0.8125 -5.703125 C 1 -6.191406 1.257812 -6.628906 1.59375 -7.015625 C 1.9375 -7.398438 2.34375 -7.695312 2.8125 -7.90625 C 3.28125 -8.125 3.789062 -8.234375 4.34375 -8.234375 C 4.820312 -8.234375 5.25 -8.15625 5.625 -8 C 6 -7.851562 6.316406 -7.65625 6.578125 -7.40625 C 6.835938 -7.164062 7.039062 -6.910156 7.1875 -6.640625 L 7.1875 -8 L 8.96875 -8 L 8.96875 -0.921875 C 8.96875 -0.359375 8.875 0.160156 8.6875 0.640625 C 8.507812 1.117188 8.242188 1.535156 7.890625 1.890625 C 7.535156 2.253906 7.097656 2.535156 6.578125 2.734375 C 6.054688 2.929688 5.453125 3.03125 4.765625 3.03125 Z M 4.75 -1.828125 C 5.082031 -1.828125 5.390625 -1.882812 5.671875 -2 C 5.953125 -2.125 6.203125 -2.296875 6.421875 -2.515625 C 6.640625 -2.734375 6.804688 -2.984375 6.921875 -3.265625 C 7.046875 -3.554688 7.109375 -3.859375 7.109375 -4.171875 C 7.109375 -4.484375 7.046875 -4.78125 6.921875 -5.0625 C 6.804688 -5.34375 6.640625 -5.585938 6.421875 -5.796875 C 6.210938 -6.015625 5.960938 -6.1875 5.671875 -6.3125 C 5.390625 -6.4375 5.082031 -6.5 4.75 -6.5 C 4.3125 -6.5 3.914062 -6.398438 3.5625 -6.203125 C 3.207031 -6.003906 2.925781 -5.726562 2.71875 -5.375 C 2.507812 -5.03125 2.40625 -4.628906 2.40625 -4.171875 C 2.40625 -3.722656 2.507812 -3.320312 2.71875 -2.96875 C 2.925781 -2.613281 3.207031 -2.332031 3.5625 -2.125 C 3.914062 -1.925781 4.3125 -1.828125 4.75 -1.828125 Z M 4.75 -1.828125 "/></g></g></g><g fill="#ef75be" fill-opacity="0.4"><g transform="translate(68.542467, 57.129022)"><g><path d="M 2.03125 -9.25 C 1.664062 -9.25 1.378906 -9.351562 1.171875 -9.5625 C 0.972656 -9.769531 0.875 -10.023438 0.875 -10.328125 C 0.875 -10.617188 0.972656 -10.867188 1.171875 -11.078125 C 1.378906 -11.296875 1.664062 -11.40625 2.03125 -11.40625 C 2.414062 -11.40625 2.707031 -11.296875 2.90625 -11.078125 C 3.113281 -10.867188 3.21875 -10.617188 3.21875 -10.328125 C 3.21875 -10.023438 3.113281 -9.769531 2.90625 -9.5625 C 2.707031 -9.351562 2.414062 -9.25 2.03125 -9.25 Z M 2.984375 0 L 1.109375 0 L 1.109375 -8 L 2.984375 -8 Z M 2.984375 0 "/></g></g></g><g fill="#ef75be" fill-opacity="0.4"><g transform="translate(72.626232, 57.129022)"><g><path d="M 2.984375 0 L 1.109375 0 L 1.109375 -8 L 2.890625 -8 L 2.890625 -6.75 C 3.046875 -7.039062 3.257812 -7.296875 3.53125 -7.515625 C 3.800781 -7.742188 4.113281 -7.921875 4.46875 -8.046875 C 4.832031 -8.171875 5.21875 -8.234375 5.625 -8.234375 C 6.695312 -8.234375 7.5 -7.890625 8.03125 -7.203125 C 8.570312 -6.523438 8.84375 -5.5625 8.84375 -4.3125 L 8.84375 0 L 6.953125 0 L 6.953125 -4.265625 C 6.953125 -5.066406 6.785156 -5.640625 6.453125 -5.984375 C 6.128906 -6.328125 5.679688 -6.5 5.109375 -6.5 C 4.734375 -6.5 4.382812 -6.40625 4.0625 -6.21875 C 3.75 -6.039062 3.488281 -5.769531 3.28125 -5.40625 C 3.082031 -5.050781 2.984375 -4.609375 2.984375 -4.078125 Z M 2.984375 0 "/></g></g></g><g fill="#ef75be" fill-opacity="0.4"><g transform="translate(82.505047, 57.129022)"><g><path d="M 4.765625 3.03125 C 4.085938 3.03125 3.503906 2.941406 3.015625 2.765625 C 2.523438 2.597656 2.125 2.367188 1.8125 2.078125 C 1.5 1.796875 1.265625 1.472656 1.109375 1.109375 C 0.960938 0.742188 0.878906 0.375 0.859375 0 L 2.640625 0 C 2.691406 0.269531 2.789062 0.515625 2.9375 0.734375 C 3.09375 0.953125 3.316406 1.125 3.609375 1.25 C 3.898438 1.382812 4.285156 1.453125 4.765625 1.453125 C 5.203125 1.453125 5.570312 1.390625 5.875 1.265625 C 6.175781 1.140625 6.421875 0.96875 6.609375 0.75 C 6.804688 0.53125 6.945312 0.28125 7.03125 0 C 7.125 -0.28125 7.171875 -0.578125 7.171875 -0.890625 L 7.171875 -1.71875 C 6.898438 -1.1875 6.519531 -0.796875 6.03125 -0.546875 C 5.539062 -0.304688 5 -0.1875 4.40625 -0.1875 C 3.84375 -0.1875 3.320312 -0.289062 2.84375 -0.5 C 2.363281 -0.707031 1.953125 -0.992188 1.609375 -1.359375 C 1.273438 -1.722656 1.007812 -2.144531 0.8125 -2.625 C 0.625 -3.101562 0.53125 -3.613281 0.53125 -4.15625 C 0.53125 -4.707031 0.625 -5.222656 0.8125 -5.703125 C 1 -6.191406 1.257812 -6.628906 1.59375 -7.015625 C 1.9375 -7.398438 2.34375 -7.695312 2.8125 -7.90625 C 3.28125 -8.125 3.789062 -8.234375 4.34375 -8.234375 C 4.820312 -8.234375 5.25 -8.15625 5.625 -8 C 6 -7.851562 6.316406 -7.65625 6.578125 -7.40625 C 6.835938 -7.164062 7.039062 -6.910156 7.1875 -6.640625 L 7.1875 -8 L 8.96875 -8 L 8.96875 -0.921875 C 8.96875 -0.359375 8.875 0.160156 8.6875 0.640625 C 8.507812 1.117188 8.242188 1.535156 7.890625 1.890625 C 7.535156 2.253906 7.097656 2.535156 6.578125 2.734375 C 6.054688 2.929688 5.453125 3.03125 4.765625 3.03125 Z M 4.75 -1.828125 C 5.082031 -1.828125 5.390625 -1.882812 5.671875 -2 C 5.953125 -2.125 6.203125 -2.296875 6.421875 -2.515625 C 6.640625 -2.734375 6.804688 -2.984375 6.921875 -3.265625 C 7.046875 -3.554688 7.109375 -3.859375 7.109375 -4.171875 C 7.109375 -4.484375 7.046875 -4.78125 6.921875 -5.0625 C 6.804688 -5.34375 6.640625 -5.585938 6.421875 -5.796875 C 6.210938 -6.015625 5.960938 -6.1875 5.671875 -6.3125 C 5.390625 -6.4375 5.082031 -6.5 4.75 -6.5 C 4.3125 -6.5 3.914062 -6.398438 3.5625 -6.203125 C 3.207031 -6.003906 2.925781 -5.726562 2.71875 -5.375 C 2.507812 -5.03125 2.40625 -4.628906 2.40625 -4.171875 C 2.40625 -3.722656 2.507812 -3.320312 2.71875 -2.96875 C 2.925781 -2.613281 3.207031 -2.332031 3.5625 -2.125 C 3.914062 -1.925781 4.3125 -1.828125 4.75 -1.828125 Z M 4.75 -1.828125 "/></g></g></g><g fill="#ff914d" fill-opacity="1"><g transform="translate(42.110798, 57.129022)"><g><path d="M 2.03125 -9.25 C 1.664062 -9.25 1.378906 -9.351562 1.171875 -9.5625 C 0.972656 -9.769531 0.875 -10.023438 0.875 -10.328125 C 0.875 -10.617188 0.972656 -10.867188 1.171875 -11.078125 C 1.378906 -11.296875 1.664062 -11.40625 2.03125 -11.40625 C 2.414062 -11.40625 2.707031 -11.296875 2.90625 -11.078125 C 3.113281 -10.867188 3.21875 -10.617188 3.21875 -10.328125 C 3.21875 -10.023438 3.113281 -9.769531 2.90625 -9.5625 C 2.707031 -9.351562 2.414062 -9.25 2.03125 -9.25 Z M 2.984375 0 L 1.109375 0 L 1.109375 -8 L 2.984375 -8 Z M 2.984375 0 "/></g></g></g><g fill="#ff914d" fill-opacity="1"><g transform="translate(46.194563, 57.129022)"><g><path d="M 3.625 0 L 1.734375 0 L 1.734375 -6.390625 L 0.140625 -6.390625 L 0.140625 -8 L 1.734375 -8 L 1.734375 -8.453125 C 1.734375 -8.765625 1.773438 -9.070312 1.859375 -9.375 C 1.953125 -9.6875 2.097656 -9.96875 2.296875 -10.21875 C 2.492188 -10.46875 2.75 -10.671875 3.0625 -10.828125 C 3.382812 -10.984375 3.769531 -11.0625 4.21875 -11.0625 L 5.75 -11.0625 L 5.75 -9.5 L 4.6875 -9.5 C 4.457031 -9.5 4.265625 -9.441406 4.109375 -9.328125 C 3.953125 -9.222656 3.832031 -9.078125 3.75 -8.890625 C 3.664062 -8.710938 3.625 -8.519531 3.625 -8.3125 L 3.625 -8 L 5.71875 -8 L 5.71875 -6.390625 L 3.625 -6.390625 Z M 3.625 0 "/></g></g></g><g fill="#ff914d" fill-opacity="1"><g transform="translate(52.028509, 57.129022)"><g><path d="M 6.015625 0 L 4.390625 0 C 4.148438 0 3.90625 -0.0195312 3.65625 -0.0625 C 3.40625 -0.101562 3.164062 -0.179688 2.9375 -0.296875 C 2.707031 -0.421875 2.503906 -0.597656 2.328125 -0.828125 C 2.148438 -1.054688 2.007812 -1.347656 1.90625 -1.703125 C 1.800781 -2.066406 1.75 -2.515625 1.75 -3.046875 L 1.75 -6.375 L 0.078125 -6.375 L 0.078125 -8 L 1.75 -8 L 1.75 -10.34375 L 3.625 -10.359375 L 3.625 -8 L 6.015625 -8 L 6.015625 -6.375 L 3.625 -6.375 L 3.625 -2.953125 C 3.625 -2.578125 3.675781 -2.289062 3.78125 -2.09375 C 3.894531 -1.894531 4.039062 -1.753906 4.21875 -1.671875 C 4.394531 -1.597656 4.582031 -1.5625 4.78125 -1.5625 L 6.015625 -1.5625 Z M 6.015625 0 "/></g></g></g><g fill="#ff914d" fill-opacity="1"><g transform="translate(58.469185, 57.129022)"><g><path d="M 4.765625 3.03125 C 4.085938 3.03125 3.503906 2.941406 3.015625 2.765625 C 2.523438 2.597656 2.125 2.367188 1.8125 2.078125 C 1.5 1.796875 1.265625 1.472656 1.109375 1.109375 C 0.960938 0.742188 0.878906 0.375 0.859375 0 L 2.640625 0 C 2.691406 0.269531 2.789062 0.515625 2.9375 0.734375 C 3.09375 0.953125 3.316406 1.125 3.609375 1.25 C 3.898438 1.382812 4.285156 1.453125 4.765625 1.453125 C 5.203125 1.453125 5.570312 1.390625 5.875 1.265625 C 6.175781 1.140625 6.421875 0.96875 6.609375 0.75 C 6.804688 0.53125 6.945312 0.28125 7.03125 0 C 7.125 -0.28125 7.171875 -0.578125 7.171875 -0.890625 L 7.171875 -1.71875 C 6.898438 -1.1875 6.519531 -0.796875 6.03125 -0.546875 C 5.539062 -0.304688 5 -0.1875 4.40625 -0.1875 C 3.84375 -0.1875 3.320312 -0.289062 2.84375 -0.5 C 2.363281 -0.707031 1.953125 -0.992188 1.609375 -1.359375 C 1.273438 -1.722656 1.007812 -2.144531 0.8125 -2.625 C 0.625 -3.101562 0.53125 -3.613281 0.53125 -4.15625 C 0.53125 -4.707031 0.625 -5.222656 0.8125 -5.703125 C 1 -6.191406 1.257812 -6.628906 1.59375 -7.015625 C 1.9375 -7.398438 2.34375 -7.695312 2.8125 -7.90625 C 3.28125 -8.125 3.789062 -8.234375 4.34375 -8.234375 C 4.820312 -8.234375 5.25 -8.15625 5.625 -8 C 6 -7.851562 6.316406 -7.65625 6.578125 -7.40625 C 6.835938 -7.164062 7.039062 -6.910156 7.1875 -6.640625 L 7.1875 -8 L 8.96875 -8 L 8.96875 -0.921875 C 8.96875 -0.359375 8.875 0.160156 8.6875 0.640625 C 8.507812 1.117188 8.242188 1.535156 7.890625 1.890625 C 7.535156 2.253906 7.097656 2.535156 6.578125 2.734375 C 6.054688 2.929688 5.453125 3.03125 4.765625 3.03125 Z M 4.75 -1.828125 C 5.082031 -1.828125 5.390625 -1.882812 5.671875 -2 C 5.953125 -2.125 6.203125 -2.296875 6.421875 -2.515625 C 6.640625 -2.734375 6.804688 -2.984375 6.921875 -3.265625 C 7.046875 -3.554688 7.109375 -3.859375 7.109375 -4.171875 C 7.109375 -4.484375 7.046875 -4.78125 6.921875 -5.0625 C 6.804688 -5.34375 6.640625 -5.585938 6.421875 -5.796875 C 6.210938 -6.015625 5.960938 -6.1875 5.671875 -6.3125 C 5.390625 -6.4375 5.082031 -6.5 4.75 -6.5 C 4.3125 -6.5 3.914062 -6.398438 3.5625 -6.203125 C 3.207031 -6.003906 2.925781 -5.726562 2.71875 -5.375 C 2.507812 -5.03125 2.40625 -4.628906 2.40625 -4.171875 C 2.40625 -3.722656 2.507812 -3.320312 2.71875 -2.96875 C 2.925781 -2.613281 3.207031 -2.332031 3.5625 -2.125 C 3.914062 -1.925781 4.3125 -1.828125 4.75 -1.828125 Z M 4.75 -1.828125 "/></g></g></g><g fill="#ff914d" fill-opacity="1"><g transform="translate(68.542467, 57.129022)"><g><path d="M 2.03125 -9.25 C 1.664062 -9.25 1.378906 -9.351562 1.171875 -9.5625 C 0.972656 -9.769531 0.875 -10.023438 0.875 -10.328125 C 0.875 -10.617188 0.972656 -10.867188 1.171875 -11.078125 C 1.378906 -11.296875 1.664062 -11.40625 2.03125 -11.40625 C 2.414062 -11.40625 2.707031 -11.296875 2.90625 -11.078125 C 3.113281 -10.867188 3.21875 -10.617188 3.21875 -10.328125 C 3.21875 -10.023438 3.113281 -9.769531 2.90625 -9.5625 C 2.707031 -9.351562 2.414062 -9.25 2.03125 -9.25 Z M 2.984375 0 L 1.109375 0 L 1.109375 -8 L 2.984375 -8 Z M 2.984375 0 "/></g></g></g><g fill="#ff914d" fill-opacity="1"><g transform="translate(72.626232, 57.129022)"><g><path d="M 2.984375 0 L 1.109375 0 L 1.109375 -8 L 2.890625 -8 L 2.890625 -6.75 C 3.046875 -7.039062 3.257812 -7.296875 3.53125 -7.515625 C 3.800781 -7.742188 4.113281 -7.921875 4.46875 -8.046875 C 4.832031 -8.171875 5.21875 -8.234375 5.625 -8.234375 C 6.695312 -8.234375 7.5 -7.890625 8.03125 -7.203125 C 8.570312 -6.523438 8.84375 -5.5625 8.84375 -4.3125 L 8.84375 0 L 6.953125 0 L 6.953125 -4.265625 C 6.953125 -5.066406 6.785156 -5.640625 6.453125 -5.984375 C 6.128906 -6.328125 5.679688 -6.5 5.109375 -6.5 C 4.734375 -6.5 4.382812 -6.40625 4.0625 -6.21875 C 3.75 -6.039062 3.488281 -5.769531 3.28125 -5.40625 C 3.082031 -5.050781 2.984375 -4.609375 2.984375 -4.078125 Z M 2.984375 0 "/></g></g></g><g fill="#ff914d" fill-opacity="1"><g transform="translate(82.505047, 57.129022)"><g><path d="M 4.765625 3.03125 C 4.085938 3.03125 3.503906 2.941406 3.015625 2.765625 C 2.523438 2.597656 2.125 2.367188 1.8125 2.078125 C 1.5 1.796875 1.265625 1.472656 1.109375 1.109375 C 0.960938 0.742188 0.878906 0.375 0.859375 0 L 2.640625 0 C 2.691406 0.269531 2.789062 0.515625 2.9375 0.734375 C 3.09375 0.953125 3.316406 1.125 3.609375 1.25 C 3.898438 1.382812 4.285156 1.453125 4.765625 1.453125 C 5.203125 1.453125 5.570312 1.390625 5.875 1.265625 C 6.175781 1.140625 6.421875 0.96875 6.609375 0.75 C 6.804688 0.53125 6.945312 0.28125 7.03125 0 C 7.125 -0.28125 7.171875 -0.578125 7.171875 -0.890625 L 7.171875 -1.71875 C 6.898438 -1.1875 6.519531 -0.796875 6.03125 -0.546875 C 5.539062 -0.304688 5 -0.1875 4.40625 -0.1875 C 3.84375 -0.1875 3.320312 -0.289062 2.84375 -0.5 C 2.363281 -0.707031 1.953125 -0.992188 1.609375 -1.359375 C 1.273438 -1.722656 1.007812 -2.144531 0.8125 -2.625 C 0.625 -3.101562 0.53125 -3.613281 0.53125 -4.15625 C 0.53125 -4.707031 0.625 -5.222656 0.8125 -5.703125 C 1 -6.191406 1.257812 -6.628906 1.59375 -7.015625 C 1.9375 -7.398438 2.34375 -7.695312 2.8125 -7.90625 C 3.28125 -8.125 3.789062 -8.234375 4.34375 -8.234375 C 4.820312 -8.234375 5.25 -8.15625 5.625 -8 C 6 -7.851562 6.316406 -7.65625 6.578125 -7.40625 C 6.835938 -7.164062 7.039062 -6.910156 7.1875 -6.640625 L 7.1875 -8 L 8.96875 -8 L 8.96875 -0.921875 C 8.96875 -0.359375 8.875 0.160156 8.6875 0.640625 C 8.507812 1.117188 8.242188 1.535156 7.890625 1.890625 C 7.535156 2.253906 7.097656 2.535156 6.578125 2.734375 C 6.054688 2.929688 5.453125 3.03125 4.765625 3.03125 Z M 4.75 -1.828125 C 5.082031 -1.828125 5.390625 -1.882812 5.671875 -2 C 5.953125 -2.125 6.203125 -2.296875 6.421875 -2.515625 C 6.640625 -2.734375 6.804688 -2.984375 6.921875 -3.265625 C 7.046875 -3.554688 7.109375 -3.859375 7.109375 -4.171875 C 7.109375 -4.484375 7.046875 -4.78125 6.921875 -5.0625 C 6.804688 -5.34375 6.640625 -5.585938 6.421875 -5.796875 C 6.210938 -6.015625 5.960938 -6.1875 5.671875 -6.3125 C 5.390625 -6.4375 5.082031 -6.5 4.75 -6.5 C 4.3125 -6.5 3.914062 -6.398438 3.5625 -6.203125 C 3.207031 -6.003906 2.925781 -5.726562 2.71875 -5.375 C 2.507812 -5.03125 2.40625 -4.628906 2.40625 -4.171875 C 2.40625 -3.722656 2.507812 -3.320312 2.71875 -2.96875 C 2.925781 -2.613281 3.207031 -2.332031 3.5625 -2.125 C 3.914062 -1.925781 4.3125 -1.828125 4.75 -1.828125 Z M 4.75 -1.828125 "/></g></g></g><g fill="#004aad" fill-opacity="1"><g transform="translate(92.582287, 57.129022)"><g><path d="M 4.453125 0.21875 C 3.910156 0.21875 3.40625 0.113281 2.9375 -0.09375 C 2.46875 -0.3125 2.0625 -0.613281 1.71875 -1 C 1.375 -1.382812 1.101562 -1.828125 0.90625 -2.328125 C 0.707031 -2.835938 0.609375 -3.382812 0.609375 -3.96875 C 0.609375 -4.550781 0.707031 -5.09375 0.90625 -5.59375 C 1.101562 -6.101562 1.375 -6.550781 1.71875 -6.9375 C 2.0625 -7.320312 2.46875 -7.617188 2.9375 -7.828125 C 3.40625 -8.046875 3.90625 -8.15625 4.4375 -8.15625 C 4.914062 -8.15625 5.359375 -8.078125 5.765625 -7.921875 C 6.179688 -7.765625 6.546875 -7.539062 6.859375 -7.25 C 7.171875 -6.96875 7.414062 -6.628906 7.59375 -6.234375 L 7.59375 -7.9375 L 8.875 -7.9375 L 8.875 0 L 7.59375 0 L 7.59375 -1.6875 C 7.414062 -1.300781 7.171875 -0.960938 6.859375 -0.671875 C 6.546875 -0.378906 6.179688 -0.15625 5.765625 0 C 5.359375 0.144531 4.921875 0.21875 4.453125 0.21875 Z M 4.75 -1.03125 C 5.132812 -1.03125 5.492188 -1.101562 5.828125 -1.25 C 6.171875 -1.394531 6.46875 -1.597656 6.71875 -1.859375 C 6.976562 -2.128906 7.179688 -2.441406 7.328125 -2.796875 C 7.472656 -3.160156 7.546875 -3.550781 7.546875 -3.96875 C 7.546875 -4.375 7.472656 -4.753906 7.328125 -5.109375 C 7.179688 -5.472656 6.976562 -5.785156 6.71875 -6.046875 C 6.46875 -6.316406 6.171875 -6.523438 5.828125 -6.671875 C 5.492188 -6.828125 5.132812 -6.90625 4.75 -6.90625 C 4.363281 -6.90625 4 -6.832031 3.65625 -6.6875 C 3.320312 -6.539062 3.023438 -6.335938 2.765625 -6.078125 C 2.503906 -5.816406 2.300781 -5.503906 2.15625 -5.140625 C 2.019531 -4.785156 1.953125 -4.394531 1.953125 -3.96875 C 1.953125 -3.53125 2.023438 -3.128906 2.171875 -2.765625 C 2.316406 -2.398438 2.515625 -2.085938 2.765625 -1.828125 C 3.023438 -1.578125 3.320312 -1.378906 3.65625 -1.234375 C 4 -1.097656 4.363281 -1.03125 4.75 -1.03125 Z M 4.75 -1.03125 "/></g></g></g><g fill="#004aad" fill-opacity="1"><g transform="translate(102.741132, 57.129022)"><g><path d="M 2.625 0 L 1.28125 0 L 1.28125 -7.9375 L 2.578125 -7.9375 L 2.578125 -6.15625 C 2.773438 -6.707031 3.082031 -7.140625 3.5 -7.453125 C 3.914062 -7.773438 4.410156 -7.9375 4.984375 -7.9375 L 5.765625 -7.9375 L 5.765625 -6.765625 L 5.0625 -6.765625 C 4.59375 -6.765625 4.175781 -6.644531 3.8125 -6.40625 C 3.445312 -6.164062 3.15625 -5.816406 2.9375 -5.359375 C 2.726562 -4.910156 2.625 -4.367188 2.625 -3.734375 Z M 2.625 0 "/></g></g></g><g fill="#004aad" fill-opacity="1"><g transform="translate(108.777321, 57.129022)"><g><path d="M 8.578125 -4.15625 C 8.578125 -4.09375 8.570312 -4.023438 8.5625 -3.953125 C 8.5625 -3.878906 8.554688 -3.769531 8.546875 -3.625 L 1.96875 -3.625 C 2.019531 -3.09375 2.171875 -2.628906 2.421875 -2.234375 C 2.679688 -1.847656 3.003906 -1.550781 3.390625 -1.34375 C 3.773438 -1.132812 4.1875 -1.03125 4.625 -1.03125 C 5.15625 -1.03125 5.609375 -1.144531 5.984375 -1.375 C 6.367188 -1.601562 6.648438 -1.941406 6.828125 -2.390625 L 8.328125 -2.390625 C 8.210938 -2.023438 8.039062 -1.679688 7.8125 -1.359375 C 7.59375 -1.046875 7.320312 -0.769531 7 -0.53125 C 6.675781 -0.300781 6.316406 -0.117188 5.921875 0.015625 C 5.523438 0.148438 5.101562 0.21875 4.65625 0.21875 C 4.082031 0.21875 3.546875 0.113281 3.046875 -0.09375 C 2.554688 -0.3125 2.128906 -0.613281 1.765625 -1 C 1.398438 -1.382812 1.113281 -1.828125 0.90625 -2.328125 C 0.707031 -2.835938 0.609375 -3.382812 0.609375 -3.96875 C 0.609375 -4.550781 0.707031 -5.09375 0.90625 -5.59375 C 1.113281 -6.101562 1.398438 -6.550781 1.765625 -6.9375 C 2.128906 -7.320312 2.554688 -7.617188 3.046875 -7.828125 C 3.546875 -8.046875 4.082031 -8.15625 4.65625 -8.15625 C 5.226562 -8.15625 5.753906 -8.050781 6.234375 -7.84375 C 6.710938 -7.632812 7.125 -7.34375 7.46875 -6.96875 C 7.820312 -6.59375 8.09375 -6.164062 8.28125 -5.6875 C 8.476562 -5.207031 8.578125 -4.695312 8.578125 -4.15625 Z M 2.03125 -4.796875 L 7.203125 -4.796875 C 7.179688 -5.078125 7.097656 -5.34375 6.953125 -5.59375 C 6.816406 -5.851562 6.628906 -6.078125 6.390625 -6.265625 C 6.160156 -6.460938 5.894531 -6.617188 5.59375 -6.734375 C 5.289062 -6.847656 4.96875 -6.90625 4.625 -6.90625 C 4.226562 -6.90625 3.851562 -6.820312 3.5 -6.65625 C 3.144531 -6.5 2.835938 -6.265625 2.578125 -5.953125 C 2.316406 -5.640625 2.132812 -5.253906 2.03125 -4.796875 Z M 2.03125 -4.796875 "/></g></g></g><g fill="#004aad" fill-opacity="1"><g transform="translate(117.839386, 57.129022)"><g><path d="M 2.625 0 L 1.28125 0 L 1.28125 -7.9375 L 2.5625 -7.9375 L 2.5625 -6.40625 C 2.71875 -6.75 2.9375 -7.050781 3.21875 -7.3125 C 3.507812 -7.582031 3.847656 -7.789062 4.234375 -7.9375 C 4.628906 -8.082031 5.050781 -8.15625 5.5 -8.15625 C 6.550781 -8.15625 7.347656 -7.828125 7.890625 -7.171875 C 8.429688 -6.523438 8.703125 -5.566406 8.703125 -4.296875 L 8.703125 0 L 7.375 0 L 7.375 -4.28125 C 7.375 -5.195312 7.175781 -5.863281 6.78125 -6.28125 C 6.382812 -6.695312 5.84375 -6.90625 5.15625 -6.90625 C 4.820312 -6.90625 4.503906 -6.84375 4.203125 -6.71875 C 3.898438 -6.59375 3.628906 -6.410156 3.390625 -6.171875 C 3.148438 -5.941406 2.960938 -5.65625 2.828125 -5.3125 C 2.691406 -4.976562 2.625 -4.597656 2.625 -4.171875 Z M 2.625 0 "/></g></g></g><g fill="#004aad" fill-opacity="1"><g transform="translate(127.733758, 57.129022)"><g><path d="M 4.453125 0.21875 C 3.910156 0.21875 3.40625 0.113281 2.9375 -0.09375 C 2.46875 -0.3125 2.0625 -0.613281 1.71875 -1 C 1.375 -1.382812 1.101562 -1.828125 0.90625 -2.328125 C 0.707031 -2.835938 0.609375 -3.382812 0.609375 -3.96875 C 0.609375 -4.550781 0.707031 -5.09375 0.90625 -5.59375 C 1.101562 -6.101562 1.375 -6.550781 1.71875 -6.9375 C 2.0625 -7.320312 2.46875 -7.617188 2.9375 -7.828125 C 3.40625 -8.046875 3.90625 -8.15625 4.4375 -8.15625 C 4.914062 -8.15625 5.359375 -8.078125 5.765625 -7.921875 C 6.179688 -7.765625 6.546875 -7.539062 6.859375 -7.25 C 7.171875 -6.96875 7.414062 -6.628906 7.59375 -6.234375 L 7.59375 -7.9375 L 8.875 -7.9375 L 8.875 0 L 7.59375 0 L 7.59375 -1.6875 C 7.414062 -1.300781 7.171875 -0.960938 6.859375 -0.671875 C 6.546875 -0.378906 6.179688 -0.15625 5.765625 0 C 5.359375 0.144531 4.921875 0.21875 4.453125 0.21875 Z M 4.75 -1.03125 C 5.132812 -1.03125 5.492188 -1.101562 5.828125 -1.25 C 6.171875 -1.394531 6.46875 -1.597656 6.71875 -1.859375 C 6.976562 -2.128906 7.179688 -2.441406 7.328125 -2.796875 C 7.472656 -3.160156 7.546875 -3.550781 7.546875 -3.96875 C 7.546875 -4.375 7.472656 -4.753906 7.328125 -5.109375 C 7.179688 -5.472656 6.976562 -5.785156 6.71875 -6.046875 C 6.46875 -6.316406 6.171875 -6.523438 5.828125 -6.671875 C 5.492188 -6.828125 5.132812 -6.90625 4.75 -6.90625 C 4.363281 -6.90625 4 -6.832031 3.65625 -6.6875 C 3.320312 -6.539062 3.023438 -6.335938 2.765625 -6.078125 C 2.503906 -5.816406 2.300781 -5.503906 2.15625 -5.140625 C 2.019531 -4.785156 1.953125 -4.394531 1.953125 -3.96875 C 1.953125 -3.53125 2.023438 -3.128906 2.171875 -2.765625 C 2.316406 -2.398438 2.515625 -2.085938 2.765625 -1.828125 C 3.023438 -1.578125 3.320312 -1.378906 3.65625 -1.234375 C 4 -1.097656 4.363281 -1.03125 4.75 -1.03125 Z M 4.75 -1.03125 "/></g></g></g></svg>